# xmcd CD database file
# Copyright (C) 1995 Ti Kan
#
# Track frame offsets:
#	183
#	16985
#	38293
#	54655
#	72878
#	83688
#	101888
#	122030
#	143078
#	156413
#	168108
#	186490
#
# Disc length: 2804 seconds
#
# Revision: 1
# Processed by: cddbd v1.4b41PL1 Copyright (c) Steve Scherf et al.
# Submitted via: NotifyCDPlayer(CDDB) 1.05
#
DISCID=9a0af20c
DTITLE=Rory Block - Mama's Blues
DYEAR=1900
DGENRE=
TTITLE0=Morning Bells
TTITLE1=Heavenly Bird
TTITLE2=The Water Is Wide
TTITLE3=Do You Love Me?
TTITLE4=Walkin' Blues
TTITLE5=Farewell Young Man
TTITLE6=Mama's Blues
TTITLE7=The Golden Vanity
TTITLE8=Do Your Duty
TTITLE9=God's Gift To Women
TTITLE10=Lovin' Whiskey
TTITLE11=Gypsie Boy
EXTD=
EXTT0=
EXTT1=
EXTT2=
EXTT3=
EXTT4=
EXTT5=
EXTT6=
EXTT7=
EXTT8=
EXTT9=
EXTT10=
EXTT11=
PLAYORDER=
